<?xml version="1.0" encoding="UTF-8"?>
<svg width="50px" height="30px" viewBox="0 0 50 30" version="1.1" xmlns="http://www.w3.org/2000/svg" xmlns:xlink="http://www.w3.org/1999/xlink">
    <!-- Generator: Sketch 61.2 (89653) - https://sketch.com -->
    <title>MasterCard_Logo</title>
    <desc>Created with Sketch.</desc>
    <g id="Design" stroke="none" stroke-width="1" fill="none" fill-rule="evenodd">
        <g id="Artboard" transform="translate(-796.000000, -1090.000000)" fill-rule="nonzero">
            <g id="Group-2" transform="translate(591.000000, 957.000000)">
                <g id="CC-Ön">
                    <g id="MasterCard_Logo" transform="translate(205.000000, 133.000000)">
                        <g id="g10305">
                            <path d="M49.8375845,15.0167785 C49.8399329,23.2275168 43.1855705,29.8848993 34.9748322,29.887081 C26.7639262,29.889094 20.1067114,23.2350671 20.1045297,15.0243289 C20.1045297,15.0216443 20.1045297,15.0194631 20.1045297,15.0167785 C20.102349,6.80620805 26.7567114,0.148489933 34.9671141,0.146308189 C43.1780201,0.144127517 49.8354027,6.79848993 49.8375845,15.0092282 C49.8375845,15.011745 49.8375845,15.014094 49.8375845,15.0167785 Z" id="path2268" fill="#FF9900"></path>
                            <path d="M14.9330537,0.150093214 C6.77097315,0.202013423 0.162248322,6.84244966 0.162248322,15.0167785 C0.162248322,23.2229866 6.82248322,29.8832215 15.0288591,29.8832215 C18.8803691,29.8832215 22.3911074,28.4154362 25.0328859,26.0097315 C25.0327181,26.0097315 25.0323826,26.009396 25.0317114,26.0090604 L25.0348993,26.0090604 C25.5758389,25.5161074 26.0803691,24.9842282 26.5441275,24.4171141 L23.4983221,24.4171141 C23.0916107,23.9258389 22.7219799,23.4139262 22.3899329,22.8857383 L27.642953,22.8857383 C27.9624161,22.3744966 28.2516779,21.8436242 28.5083893,21.2937919 L21.522651,21.2937919 C21.2845638,20.7833893 21.0778523,20.2614094 20.9013423,19.7318792 L29.1303691,19.7318792 C29.6263423,18.25 29.8954698,16.6645973 29.8954698,15.0166107 C29.8954698,13.9239933 29.7770134,12.8587248 29.5528523,11.8330537 L20.4649329,11.8330537 C20.5775168,11.3052013 20.7196309,10.7837248 20.889094,10.2713087 L29.1211409,10.2713087 C28.9370805,9.72600671 28.7233221,9.19463087 28.4802013,8.6795302 L21.5218121,8.6795302 C21.7728188,8.14328859 22.0572148,7.6216443 22.3748322,7.11795302 L27.6239933,7.11795302 C27.2746644,6.5614094 26.8880872,6.02969799 26.4701342,5.52600671 L23.5434564,5.52600671 C23.9959732,4.99345638 24.4941275,4.49194631 25.0348993,4.02432886 C22.392953,1.61828859 18.8812081,0.150093214 15.0288591,0.150093214 C14.9968121,0.150093214 14.9651007,0.150093214 14.9330537,0.150093214 Z" id="path1350" fill="#CC0000"></path>
                            <path d="M48.490537,22.7885906 C48.5956853,22.7885906 48.6979977,22.8158594 48.7979104,22.8695243 C48.8982595,22.9231892 48.9754846,23.0006325 49.031331,23.1011997 C49.0871775,23.2006761 49.1151007,23.3056063 49.1151007,23.4142451 C49.1151007,23.5215749 49.0873956,23.6254143 49.0324218,23.7248908 C48.9776661,23.8241491 48.900441,23.9015923 48.8009645,23.9567843 C48.7025789,24.0111037 48.5985213,24.0385906 48.4903188,24.0385906 C48.3821164,24.0385906 48.2782769,24.0111037 48.1792368,23.9567843 C48.0799785,23.9013742 48.0031897,23.8243672 47.9473433,23.7248908 C47.8923694,23.6254143 47.8651007,23.5215749 47.8651007,23.4142451 C47.8651007,23.3056063 47.8928057,23.2006761 47.9488703,23.1011997 C48.005153,23.0006325 48.0828145,22.9238437 48.182509,22.8695243 C48.2832944,22.8158594 48.3856068,22.7885906 48.490537,22.7885906 M48.490537,22.8922119 C48.4030588,22.8922119 48.317544,22.9148995 48.2339925,22.9600566 C48.1510954,23.0052136 48.0863049,23.0691316 48.0396207,23.1537739 C47.9922822,23.2371072 47.968722,23.3234946 47.968722,23.4142451 C47.968722,23.5041229 47.9918459,23.5909466 48.0374392,23.6734074 C48.0841234,23.7556499 48.1486958,23.8202224 48.2311565,23.8664702 C48.3142717,23.9124999 48.400441,23.9351875 48.4903188,23.9351875 C48.580633,23.9351875 48.6670204,23.9124999 48.7496993,23.8664702 C48.83216,23.8202224 48.8965143,23.7556499 48.942544,23.6734074 C48.9881373,23.5909466 49.0108249,23.504341 49.0108249,23.4142451 C49.0108249,23.3234946 48.987701,23.236889 48.9407988,23.1537739 C48.8943328,23.0691316 48.8293241,23.0052136 48.7457726,22.9600566 C48.6630937,22.9146814 48.5780152,22.8922119 48.490537,22.8922119 M48.2165405,23.7593585 L48.2165405,23.0870199 L48.4482159,23.0870199 C48.5267499,23.0870199 48.5839052,23.0931281 48.6192455,23.1062171 C48.6545858,23.1186517 48.6827272,23.1398122 48.7038878,23.1710077 C48.724612,23.2017669 48.7353014,23.2344894 48.7353014,23.2693934 C48.7353014,23.3186953 48.7178494,23.3614527 48.682509,23.3976656 C48.6480413,23.4338786 48.6011391,23.4546028 48.5431111,23.4589658 C48.5668895,23.4687826 48.5858686,23.4812171 48.6007028,23.4947424 C48.6279715,23.5209204 48.660694,23.5652049 48.6999611,23.627814 L48.7817673,23.7593585 L48.6495684,23.7593585 L48.5902316,23.6535557 C48.5433293,23.5702224 48.5055893,23.5183026 48.4765754,23.4969239 C48.4567237,23.4818716 48.4277097,23.4740182 48.3899698,23.4740182 L48.3260518,23.4740182 L48.3260518,23.7600129 L48.2169768,23.7600129 M48.3251792,23.3808681 L48.4569419,23.3808681 C48.5197691,23.3808681 48.5623084,23.3712695 48.5852141,23.3527267 C48.608338,23.3335295 48.6199,23.3090967 48.6199,23.2781194 C48.6199,23.2580496 48.6146644,23.2401613 48.6035387,23.2248908 C48.5921949,23.2089658 48.5769244,23.197622 48.5570727,23.1895505 C48.5376574,23.1819152 48.5014445,23.1775522 48.4486522,23.1775522 L48.3256155,23.1775522 L48.3256155,23.3808681" id="use9412" fill="#FCB340"></path>
                        </g>
                        <g id="g16480" transform="translate(1.006711, 11.073826)">
                            <g id="g13802" transform="translate(0.042945, 0.334547)" fill="#000066">
                                <path d="M18.9125839,7.87348993 L19.1105705,6.52785235 C19.002349,6.52785235 18.8432886,6.57466443 18.7026846,6.57466443 C18.1516779,6.57466443 18.0828859,6.28020134 18.1261745,6.06510067 L18.6691275,3.35872483 L19.5067114,3.35872483 L19.6793624,1.83137584 L18.8899329,1.83137584 L19.0506711,0.905872483 L17.3993289,0.905872483 C17.3644295,0.940771812 16.4651007,6.11090604 16.4651007,6.74077181 C16.4651007,7.67281879 16.988255,8.08758389 17.7261745,8.08104027 C18.3036913,8.0761745 18.7538591,7.91627517 18.9125839,7.87348993 Z" id="path13804"></path>
                                <path d="M19.4137584,5.30838926 C19.4137584,7.54530201 20.8901007,8.07667785 22.1481544,8.07667785 C23.309396,8.07667785 23.9182886,7.80755034 23.9182886,7.80755034 L24.1971477,6.2807047 C24.1971477,6.2807047 23.2159396,6.67969799 22.4184564,6.67969799 C20.7186242,6.67969799 21.0166107,5.41224832 21.0166107,5.41224832 L24.2822148,5.42214765 C24.2822148,5.42214765 24.4901007,4.39681208 24.4901007,3.97885906 C24.4901007,2.93573826 23.9218121,1.65520134 22.1838926,1.65520134 C20.5922819,1.65553691 19.4137584,3.3704698 19.4137584,5.30838926 Z M22.1899329,3.07265101 C23.0832215,3.07265101 22.9184564,4.07667785 22.9184564,4.15805369 L21.1610738,4.15805369 C21.1610738,4.05402685 21.3270134,3.07265101 22.1899329,3.07265101 Z" id="path13806"></path>
                                <path d="M32.2130872,7.87298658 L32.4964765,6.14748322 C32.4964765,6.14748322 31.7192953,6.53691275 31.1865772,6.53691275 C30.0635906,6.53691275 29.6130872,5.6795302 29.6130872,4.75822148 C29.6130872,2.88959732 30.5791946,1.8614094 31.654698,1.8614094 C32.4614094,1.8614094 33.108557,2.31426174 33.108557,2.31426174 L33.3669463,0.637583893 C33.3669463,0.637583893 32.6028523,0.085738255 31.7803691,0.0825093213 C29.3063758,0.0728187919 27.8907718,1.79530201 27.8907718,4.77298658 C27.8907718,6.7466443 28.939094,8.0897651 30.8280201,8.0897651 C31.3620805,8.0897651 32.2130872,7.87298658 32.2130872,7.87298658 Z" id="path13808"></path>
                                <path d="M10.2063758,1.67986577 C9.12097315,1.67986577 8.28909396,2.02869128 8.28909396,2.02869128 L8.05922819,3.39228188 C8.05922819,3.39228188 8.74597315,3.11325503 9.78422819,3.11325503 C10.3736577,3.11325503 10.8048658,3.1795302 10.8048658,3.65855705 C10.8048658,3.94949664 10.7521812,4.05687919 10.7521812,4.05687919 C10.7521812,4.05687919 10.2870805,4.01812081 10.0716443,4.01812081 C8.52634228,4.01812081 7.2647651,4.60234899 7.2647651,6.36375839 C7.2647651,7.75184564 8.20822148,8.07013423 8.79295302,8.07013423 C9.90989933,8.07013423 10.3520134,7.36493289 10.3775168,7.36291946 L10.3645973,7.94815436 C10.3645973,7.94815436 11.7582215,7.94815436 11.7583893,7.94815436 L12.3802013,3.58909396 C12.3802013,1.73926174 10.7667785,1.67986577 10.2063758,1.67986577 Z M10.447651,5.21946309 C10.4780201,5.48557047 10.3788591,6.74395973 9.42550336,6.74395973 C8.93389262,6.74395973 8.80620805,6.36812081 8.80620805,6.14630872 C8.80620805,5.71275168 9.04161074,5.19278523 10.2013423,5.19278523 C10.4714765,5.19278523 10.4021812,5.21224832 10.447651,5.21946309 Z" id="path13810"></path>
                                <path d="M13.8615772,8.03791946 C14.2181208,8.03791946 16.2562081,8.12869128 16.2562081,6.02550336 C16.2562081,4.05889262 14.3696309,4.44765101 14.3696309,3.65738255 C14.3696309,3.26442953 14.6771812,3.14060403 15.2394295,3.14060403 C15.4624161,3.14060403 16.3211409,3.21157718 16.3211409,3.21157718 L16.5206376,1.81392617 C16.5206376,1.81409396 15.9649329,1.68959732 15.0602349,1.68959732 C13.8892617,1.68959732 12.7006711,2.15704698 12.7006711,3.75637584 C12.7006711,5.56879195 14.6825503,5.38674497 14.6825503,6.15016779 C14.6825503,6.65973154 14.1288591,6.70167785 13.7020134,6.70167785 C12.9635906,6.70167785 12.2988255,6.44815436 12.2964765,6.46040268 L12.0852349,7.84379195 C12.1236577,7.85553691 12.5338926,8.03791946 13.8615772,8.03791946 Z" id="path13812"></path>
                                <path d="M45.2696309,0.411912752 L44.983557,2.5442953 C44.983557,2.5442953 44.3874161,1.72130872 43.454698,1.72130872 C41.6998322,1.72130872 40.7954698,3.47013423 40.7954698,5.47902685 C40.7954698,6.77600671 41.4404362,8.04731544 42.7583893,8.04731544 C43.7065436,8.04731544 44.2322148,7.38607383 44.2322148,7.38607383 L44.1625839,7.95067114 L45.7025168,7.95067114 L46.911745,0.423489933 L45.2696309,0.411912752 Z M44.5897651,4.55637584 C44.5897651,5.39244966 44.1756711,6.50939597 43.3177852,6.50939597 C42.7479866,6.50939597 42.4808725,6.03104027 42.4808725,5.28053691 C42.4808725,4.05318792 43.032047,3.24362416 43.7278523,3.24362416 C44.2973154,3.24362416 44.5897651,3.63456376 44.5897651,4.55637584 Z" id="path13814"></path>
                                <polygon id="path13816" points="1.63573826 7.95687919 2.59932886 2.27399329 2.7409396 7.95687919 3.83137584 7.95687919 5.86577181 2.27399329 4.96459732 7.95687919 6.58506711 7.95687919 7.83288591 0.419630872 5.25872483 0.4 3.72751678 5.0147651 3.68557047 0.419630872 1.32651007 0.419630872 0.060738255 7.95687919"></polygon>
                                <path d="M26.0236577,7.96761745 C26.484396,5.34765101 26.6484899,3.27852349 27.9921141,3.70704698 C28.1850671,2.69295302 28.6449664,1.81107383 28.8550336,1.38187919 C28.8550336,1.38187919 28.7885906,1.28305369 28.3733221,1.28305369 C27.6644295,1.28305369 26.717953,2.7216443 26.717953,2.7216443 L26.859396,1.83221477 L25.3852349,1.83221477 L24.3979866,7.96744966 L26.0236577,7.96744966 L26.0236577,7.96761745 Z" id="path13818"></path>
                                <g id="use14699" transform="translate(32.432903, 1.677852)">
                                    <path d="M3.09563758,0.00201342282 C2.00973154,0.00201342282 1.17785235,0.350838926 1.17785235,0.350838926 L0.948154362,1.71442953 C0.948154362,1.71442953 1.6352349,1.43540268 2.67298658,1.43540268 C3.26258389,1.43540268 3.69362416,1.50167785 3.69362416,1.9807047 C3.69362416,2.2716443 3.64110738,2.37902685 3.64110738,2.37902685 C3.64110738,2.37902685 3.1761745,2.34026846 2.96073826,2.34026846 C1.41526846,2.34026846 0.15385906,2.92449664 0.15385906,4.68590604 C0.15385906,6.07399329 1.09714765,6.39228188 1.68187919,6.39228188 C2.79848993,6.39228188 3.2409396,5.68708054 3.26627517,5.68506711 L3.25318792,6.27030201 L4.64731544,6.27030201 L5.26895973,1.91124161 C5.26912752,0.061409396 3.6557047,0.00201342282 3.09563758,0.00201342282 Z M3.33657718,3.54161074 C3.36677852,3.80771812 3.26761745,5.06610738 2.31442953,5.06610738 C1.82248322,5.06610738 1.69496644,4.69026846 1.69496644,4.46845638 C1.69496644,4.03489933 1.93020134,3.51493289 3.09010067,3.51493289 C3.36040268,3.51493289 3.29127517,3.53439597 3.33657718,3.54161074 Z" id="path13810_1_"></path>
                                </g>
                                <path d="M39.3063758,7.96761745 C39.559396,6.04010067 40.0276846,3.3340604 41.2746644,3.70704698 C41.4674497,2.69295302 41.2815436,2.69563758 40.866443,2.69563758 C40.157047,2.69563758 40,2.72147651 40,2.72147651 L40.1416107,1.83204698 L38.6676174,1.83204698 L37.6803691,7.96744966 L39.3063758,7.96744966 L39.3063758,7.96761745 Z" id="use14701"></path>
                            </g>
                            <g id="g10289" transform="translate(0.503356, 0.000000)" fill="#FFFFFF">
                                <path d="M18.8647651,7.72802013 L19.0629195,6.38255034 C18.954698,6.38255034 18.7954698,6.42885906 18.6550336,6.42885906 C18.1040268,6.42885906 18.0432886,6.13590604 18.0783557,5.9192953 L18.5234899,3.17399329 L19.360906,3.17399329 L19.5630872,1.68573826 L18.7734899,1.68573826 L18.9342282,0.760234899 L17.3513423,0.760234899 C17.316443,0.795134228 16.4169463,5.96543624 16.4169463,6.59496644 C16.4169463,7.52701342 16.9402685,7.94211409 17.6781879,7.93540268 C18.2560403,7.93053691 18.7060403,7.77063758 18.8647651,7.72802013 Z" id="path4157"></path>
                                <path d="M19.3662752,5.16275168 C19.3662752,7.39966443 20.8427852,7.93120805 22.1006711,7.93120805 C23.261745,7.93120805 23.772651,7.6716443 23.772651,7.6716443 L24.0515101,6.14496644 C24.0515101,6.14496644 23.1682886,6.5340604 22.3706376,6.5340604 C20.6709732,6.5340604 20.9686242,5.26677852 20.9686242,5.26677852 L24.1854027,5.26677852 C24.1854027,5.26677852 24.3931208,4.24110738 24.3931208,3.82315436 C24.3931208,2.78020134 23.8739933,1.50939597 22.1360738,1.50939597 C20.5444631,1.50973154 19.3662752,3.22466443 19.3662752,5.16275168 Z M22.1421141,2.92701342 C23.0354027,2.92701342 22.8706376,3.93087248 22.8706376,4.01208054 L21.113255,4.01208054 C21.113255,3.90838926 21.2793624,2.92701342 22.1421141,2.92701342 Z" id="path4155"></path>
                                <path d="M32.165604,7.72734899 L32.4488255,6.00167785 C32.4488255,6.00167785 31.6721477,6.39110738 31.139094,6.39110738 C30.0162752,6.39110738 29.5659396,5.53372483 29.5659396,4.61258389 C29.5659396,2.74395973 30.532047,1.7159396 31.6075503,1.7159396 C32.414094,1.7159396 33.0614094,2.16879195 33.0614094,2.16879195 L33.3197987,0.492114094 C33.3197987,0.492114094 32.3598993,0.103691275 31.5370805,0.103691275 C29.7097315,0.103691275 27.932047,1.68892617 27.932047,4.66610738 C27.932047,6.64026846 28.8919463,7.94412761 30.7808725,7.94412761 C31.3149329,7.9442953 32.165604,7.72734899 32.165604,7.72734899 Z" id="path4151"></path>
                                <path d="M10.1588926,1.5340604 C9.07348993,1.5340604 8.24144295,1.88288591 8.24144295,1.88288591 L8.01174497,3.24647651 C8.01174497,3.24647651 8.69848993,2.96744966 9.73657718,2.96744966 C10.3260067,2.96744966 10.7572148,3.03372483 10.7572148,3.51275168 C10.7572148,3.80369128 10.7043624,3.91107383 10.7043624,3.91107383 C10.7043624,3.91107383 10.2394295,3.87214765 10.0241611,3.87214765 C8.65520134,3.87214765 7.21711409,4.45637584 7.21711409,6.21778523 C7.21711409,7.6057047 8.16057047,7.92416107 8.74530201,7.92416107 C9.86208054,7.92416107 10.3434564,7.19949664 10.3691275,7.19731544 L10.3169463,7.80218121 L11.7107383,7.80218121 L12.3325503,3.44295302 C12.3325503,1.59362416 10.7192953,1.5340604 10.1588926,1.5340604 Z M10.4979866,5.08338926 C10.5281879,5.34966443 10.3310403,6.59781879 9.37802013,6.59781879 C8.8864094,6.59781879 8.75855705,6.22231544 8.75855705,6.00016779 C8.75855705,5.56694631 8.99395973,5.04681208 10.1538591,5.04681208 C10.4236577,5.04714765 10.4525168,5.07600671 10.4979866,5.08338926 Z" id="path4149"></path>
                                <path d="M13.8139262,7.89228188 C14.1704698,7.89228188 16.2087248,7.98288591 16.2087248,5.87969799 C16.2087248,3.91342282 14.3219799,4.30184564 14.3219799,3.51191275 C14.3219799,3.11862416 14.6295302,2.99479866 15.1916107,2.99479866 C15.4147651,2.99479866 16.2733221,3.06577181 16.2733221,3.06577181 L16.4729866,1.66812081 C16.4729866,1.66828859 15.9172819,1.54379195 15.0125839,1.54379195 C13.8416107,1.54379195 12.6530201,2.01124161 12.6530201,3.61057047 C12.6530201,5.42281879 14.6348993,5.2409396 14.6348993,6.00436242 C14.6348993,6.51392617 14.0812081,6.55536913 13.6545302,6.55536913 C12.9161074,6.55536913 12.2511745,6.30201342 12.2488255,6.31409396 L12.0377517,7.69765101 C12.0760067,7.70939597 12.4860738,7.89228188 13.8139262,7.89228188 Z" id="path4145"></path>
                                <path d="M45.2771812,0.279865772 L44.9357383,2.39848993 C44.9357383,2.39848993 44.3399329,1.57550336 43.4072148,1.57550336 C41.9568792,1.57550336 40.7479866,3.32416107 40.7479866,5.33338926 C40.7479866,6.63036913 41.3927852,7.9011745 42.710906,7.9011745 C43.6590604,7.9011745 44.1847315,7.24010067 44.1847315,7.24010067 L44.1151007,7.80469799 L45.654698,7.80469799 L46.8639262,0.277348993 L45.2771812,0.279865772 Z M44.5421141,4.41073826 C44.5421141,5.24681208 44.1281879,6.3635906 43.2699664,6.3635906 C42.7003356,6.3635906 42.4333893,5.88540268 42.4333893,5.13489933 C42.4333893,3.90771812 42.9845638,3.09798652 43.6800336,3.09798652 C44.2498322,3.09781879 44.5421141,3.48926174 44.5421141,4.41073826 Z" id="path4139"></path>
                                <polygon id="path4133" points="1.58825503 7.81124161 2.55184564 2.1283557 2.69328859 7.81124161 3.78389262 7.81124161 5.81828859 2.1283557 4.91711409 7.81124161 6.53758389 7.81124161 7.78557047 0.273825503 5.27969799 0.273825503 3.71912752 4.89848993 3.63791946 0.273825503 1.32802013 0.273825503 0.0620805369 7.81124161"></polygon>
                                <path d="M25.9761745,7.8216443 C26.4369128,5.20151007 26.5223154,3.07399329 27.6218121,3.46342282 C27.8142617,2.44932886 28,2.05704698 28.2100671,1.62785235 C28.2100671,1.62785235 28.1115772,1.60721477 27.9048658,1.60721477 C27.1959732,1.60721477 26.6708054,2.57567114 26.6708054,2.57567114 L26.8119128,1.68624161 L25.3380872,1.68624161 L24.3506711,7.8216443 L25.9761745,7.8216443 L25.9761745,7.8216443 Z" id="path4131"></path>
                                <g id="use8523" transform="translate(32.719161, 1.510067)">
                                    <path d="M3.0988255,0.0239932886 C2.01342282,0.0239932886 1.18137584,0.372818792 1.18137584,0.372818792 L0.951845638,1.7364094 C0.951845638,1.7364094 1.6385906,1.45738255 2.67667785,1.45738255 C3.26610738,1.45738255 3.69697987,1.52365772 3.69697987,2.00268456 C3.69697987,2.29362416 3.64446309,2.40100671 3.64446309,2.40100671 C3.64446309,2.40100671 3.1795302,2.36208054 2.96409396,2.36208054 C1.59530201,2.36208054 0.157214765,2.94630872 0.157214765,4.70771812 C0.157214765,6.09563758 1.10050336,6.41409396 1.6852349,6.41409396 C2.80201342,6.41409396 3.28338926,5.68942953 3.30889262,5.68724832 L3.25704698,6.29211409 C3.25704698,6.29211409 4.65033557,6.29211409 4.65083893,6.29211409 L5.27248322,1.93288591 C5.27265101,0.083557047 3.65922819,0.0239932886 3.0988255,0.0239932886 Z M3.43842282,3.57332215 C3.46862416,3.83959732 3.27130872,5.08775168 2.31795302,5.08775168 C1.82634228,5.08775168 1.6988255,4.71224832 1.6988255,4.49010067 C1.6988255,4.05687919 1.93422819,3.53674497 3.09395973,3.53674497 C3.36375839,3.53708054 3.39244966,3.5659396 3.43842282,3.57332215 Z" id="path4149_1_"></path>
                                </g>
                                <g id="use8525" transform="translate(37.631829, 1.510067)">
                                    <path d="M1.63372483,6.31157718 C2.09463087,3.69144295 2.18003356,1.56392617 3.27919463,1.9533557 C3.47197987,0.939261745 3.65788591,0.546979866 3.86778523,0.117785235 C3.86778523,0.117785235 3.7692953,0.097147651 3.56258389,0.097147651 C2.85369128,0.097147651 2.32852349,1.06560403 2.32852349,1.06560403 L2.46963087,0.176174497 L0.995805369,0.176174497 L0.00838926174,6.31157718 L1.63372483,6.31157718 L1.63372483,6.31157718 Z" id="path4131_1_"></path>
                                </g>
                                <path d="M46.9741947,6.875 C47.0786886,6.875 47.1816555,6.90183714 47.2809138,6.95638419 C47.3810447,7.00918572 47.4589242,7.08686071 47.5147707,7.18744545 C47.5708352,7.28737563 47.5983221,7.39145139 47.5983221,7.50032728 C47.5983221,7.60789405 47.5708352,7.71175161 47.5156433,7.81102723 C47.4608876,7.91030285 47.3838806,7.98819602 47.2846223,8.04296125 C47.1855822,8.09750829 47.0817427,8.125 46.9739766,8.125 C46.8653379,8.125 46.7614984,8.09750829 46.6622401,8.04296125 C46.5632,7.98775964 46.4864112,7.91030285 46.4314373,7.81102723 C46.3755909,7.71175161 46.3483221,7.60789405 46.3483221,7.50032728 C46.3483221,7.39145139 46.3760272,7.28737563 46.4320918,7.18744545 C46.4883745,7.08686071 46.5664722,7.0096221 46.6661668,6.95638419 C46.766734,6.90183714 46.8697009,6.875 46.9741947,6.875 M46.9741947,6.97798481 C46.8867166,6.97798481 46.8012017,7.00067638 46.7176502,7.04627771 C46.6343169,7.0907881 46.5695263,7.1551536 46.5226241,7.23937424 C46.4759399,7.32250393 46.4523797,7.40956101 46.4523797,7.49989091 C46.4523797,7.59022081 46.4750673,7.67662332 46.5206607,7.75909845 C46.5671267,7.84135538 46.6316991,7.90593908 46.7150324,7.95241316 C46.7974932,7.9977963 46.8836625,8.02070606 46.9741947,8.02070606 C47.0640726,8.02070606 47.1508963,7.9977963 47.2333571,7.95241316 C47.3158178,7.90593908 47.3803902,7.84135538 47.4262017,7.75909845 C47.4722314,7.67596876 47.4947009,7.59022081 47.4947009,7.49989091 C47.4947009,7.40956101 47.4713588,7.32250393 47.4246747,7.23937424 C47.3782087,7.1551536 47.3134181,7.0907881 47.2296485,7.04627771 C47.1467515,7.00089457 47.0618911,6.97798481 46.9741947,6.97798481 M46.7004164,7.84550096 L46.7004164,7.17282685 L46.9318736,7.17282685 C47.0106258,7.17282685 47.0682174,7.1791543 47.1031214,7.1920274 C47.1384618,7.20402775 47.1661668,7.22562838 47.1877637,7.25682929 C47.2089242,7.28781201 47.2196136,7.32032205 47.2196136,7.35523215 C47.2196136,7.40432449 47.2017253,7.44730756 47.166385,7.48352679 C47.1319173,7.51974603 47.0854513,7.54069209 47.0274234,7.54461948 C47.0505473,7.55465614 47.0697445,7.56665648 47.0845787,7.58018415 C47.1114112,7.60680311 47.14457,7.65131349 47.183837,7.71349712 L47.2660796,7.84528277 L47.1332262,7.84528277 L47.0741075,7.73946151 C47.0269871,7.65589544 46.9892471,7.60396666 46.9604513,7.58280241 C46.9405996,7.56731105 46.9115857,7.55967446 46.8734094,7.55967446 L46.8099277,7.55967446 L46.8099277,7.84571915 L46.7004164,7.84550096 M46.8090551,7.46694449 L46.9408178,7.46694449 C47.0038632,7.46694449 47.0464024,7.4575624 47.06909,7.43879822 C47.0919958,7.42047041 47.103994,7.39537877 47.103994,7.36417787 C47.103994,7.34432274 47.0985403,7.32643131 47.0876328,7.31137633 C47.0765071,7.29523041 47.0610185,7.28366643 47.0411668,7.27559347 C47.0213152,7.26795689 46.9857567,7.2640295 46.9325281,7.2640295 L46.8092733,7.2640295 L46.8092733,7.46694449" id="text9407"></path>
                            </g>
                        </g>
                    </g>
                </g>
            </g>
        </g>
    </g>
</svg>